<?xml version="1.0" encoding="UTF-8" standalone="no"?>
<!-- Created with Inkscape (http://www.inkscape.org/) -->

<svg
   version="1.1"
   id="svg1"
   width="320"
   height="320"
   viewBox="0 0 320 320"
   sodipodi:docname="icon2.svg"
   inkscape:version="1.4.2 (ebf0e94, 2025-05-08)"
   xmlns:inkscape="http://www.inkscape.org/namespaces/inkscape"
   xmlns:sodipodi="http://sodipodi.sourceforge.net/DTD/sodipodi-0.dtd"
   xmlns="http://www.w3.org/2000/svg"
   xmlns:svg="http://www.w3.org/2000/svg">
  <defs
     id="defs1" />
  <sodipodi:namedview
     id="namedview1"
     pagecolor="#ffffff"
     bordercolor="#000000"
     borderopacity="0.25"
     inkscape:showpageshadow="2"
     inkscape:pageopacity="0.0"
     inkscape:pagecheckerboard="0"
     inkscape:deskcolor="#d1d1d1"
     inkscape:zoom="2.625"
     inkscape:cx="155.80952"
     inkscape:cy="172.19048"
     inkscape:window-width="1920"
     inkscape:window-height="1043"
     inkscape:window-x="0"
     inkscape:window-y="0"
     inkscape:window-maximized="1"
     inkscape:current-layer="svg1" />
  <g
     inkscape:groupmode="layer"
     inkscape:label="Image"
     id="g1"
     style="display:inline">
    <path
       style="fill:#365bb7;stroke:none"
       d="m 158.08,45.44 v 0.64 l 18.1042,8.051113 6.22049,4.761719 L 186.56,62.4 c 4.84359,-6.078555 10.95555,-8.69832 17.92,-11.521738 C 207.80365,49.53084 212.96367,49.012871 214.72,45.44 210.51355,42.668184 204.89986,41.178008 200,40.192109 186.72035,37.520137 169.67625,37.062676 158.08,45.44 m -9.28,5.12 c -3.48607,7.93752 -10.65009,14.183164 -13.65481,22.4 -1.96044,5.361094 -1.06519,13.215684 -1.06519,18.88 0,3.187227 -1.29227,10.07666 0.55753,12.74445 2.1678,3.12643 8.31733,4.90897 11.60247,6.7311 10.08131,5.59166 20.35617,10.82049 30.42863,16.43556 3.7628,2.09764 9.35192,3.68582 11.92717,7.28914 3.25426,4.5534 2.10774,12.9085 2.47283,18.23975 0.26864,3.92272 1.56008,9.38694 0.52348,13.21137 -1.44316,5.32431 -5.62305,10.81008 -8.30322,15.61726 -3.8884,6.97428 -6.90467,16.13871 -12.75877,21.71408 -4.3561,4.14872 -10.0736,7.04583 -14.95579,10.51284 -11.31102,8.03234 -23.15469,15.39164 -34.93433,22.72668 -7.85944,4.89398 -16.78319,9.36972 -23.256299,16.11554 -7.0604,7.35785 -9.829639,16.8184 -13.159258,26.18223 -2.061406,5.79727 -4.606128,12.13449 -5.504443,18.24 5.637275,0 13.126191,1.31039 18.56,-0.15951 4.66709,-1.2625 8.90813,-5.04848 13.12,-7.31555 3.46983,-1.86767 8.68431,-3.81631 10.85729,-7.27383 5.0228,-7.99203 7.41,-18.0425 11.55333,-26.53111 1.29352,-2.65012 1.78972,-6.20424 4.20494,-8.1368 1.65302,-1.32267 4.36096,-0.8232 6.34444,-0.8232 2.21467,0 4.88323,-0.40221 7.04,0.13406 3.44833,0.85742 8.53021,6.31664 8.3726,10.0884 -0.0727,1.74016 -6.53762,3.14693 -8.04766,4.20742 -3.58045,2.51451 -4.48225,7.41664 -4.48494,11.49012 2.83594,-0.84416 4.89252,-3.7927 7.68,-4.97137 10.00705,-4.23136 23.58619,-3.71306 31.04,5.29137 h 0.64 l 0.32,-0.32 c -0.70451,-3.7948 -0.65248,-7.9241 -3.89926,-10.68494 -4.50207,-3.82824 -10.11174,-2.72277 -13.42174,-7.92938 -1.48916,-2.34246 -6.38813,-7.92554 -4.48443,-10.73408 1.84238,-2.71805 6.52096,-4.66906 9.32074,-6.27037 5.41457,-3.09684 10.76707,-6.58248 16.00469,-9.98295 6.49613,-4.21754 14.99287,-7.8168 20.46717,-13.29113 2.98304,-2.98305 4.98601,-7.27508 7.1516,-10.86715 3.03764,-5.03854 6.12066,-10.0625 9.25432,-15.04 2.1773,-3.45844 4.19447,-7.07938 6.4716,-10.46863 1.25496,-1.86789 3.23988,-4.2343 3.62345,-6.49137 0.98873,-5.81801 0.14684,-12.03688 0.40446,-17.92 0.64404,-14.70828 0.59131,-29.43187 0.95209,-44.16 0.19064,-7.7827 0.63531,-15.562266 0.63531,-23.36 0,-4.391973 0.37885,-8.493652 -0.83037,-12.8 -1.56852,-5.585938 -6.0684,-10.915977 -8.83606,-16 -1.0757,-1.975996 -2.44738,-5.06832 -4.73357,-5.885664 -3.57629,-1.278574 -8.37307,2.113535 -11.52,3.382461 -5.61775,2.265215 -11.78344,3.650039 -16.64,7.468887 -3.91635,3.079531 -6.52963,7.28205 -9.28,11.354316 -3.68311,-3.391348 -5.71221,-8.056738 -9.65432,-11.306914 C 172.09537,58.32709 165.47748,56.552109 159.6926,54.572832 156.08505,53.338516 152.47382,51.510566 148.8,50.56 m 28.48,48.96 c 3.22377,-0.488594 6.58717,-5.306387 8.64,-7.68 2.52729,1.052754 6.77979,5.10584 7.68,7.68 3.22566,-0.514453 1.81148,-6.429297 2.32766,-8.905684 1.219,-5.84832 4.89205,-11.714668 9.88666,-15.014316 4.48304,-2.961699 10.11117,-3.533184 15.30568,-2.540488 3.15492,0.602929 6.02969,2.128222 6.33951,5.660488 0.14967,1.706367 -0.54898,3.224355 -1.0726,4.799746 -0.51703,1.555586 -1.27556,3.134492 -2.22863,4.480508 -3.30668,4.670019 -8.92867,8.406035 -14.86568,7.982461 -3.08819,-0.220332 -6.55112,-2.300645 -9.61235,-0.626426 -3.19468,1.747207 -4.73931,6.447951 -6.23382,9.512341 -2.03065,4.16367 -4.57155,8.2475 -6.88643,12.25137 -2.28195,-1.41375 -3.04365,-4.40146 -4.14715,-6.71975 -2.13035,-4.47558 -4.35668,-10.478434 -8.07187,-13.881988 C 170.83676,93.307969 165.71697,96.262266 161.6,95.982715 154.06477,95.471055 147.33598,89.111348 146.1995,81.6 c -0.26804,-1.771562 -0.83241,-4.021387 -0.0543,-5.731113 2.15965,-4.745489 12.23983,-3.474258 16.09481,-2.276543 11.23701,3.491269 15.01049,15.228457 15.04,25.927656 M 74.56,257.6 c 3.315991,0.49631 8.838477,-4.82465 11.548643,-6.64715 10.510732,-7.06814 21.263577,-13.7684 31.705687,-20.93433 10.82937,-7.43168 21.99667,-14.36422 32.90567,-21.66989 5.06705,-3.39334 11.13122,-6.27312 15.61186,-10.43431 2.57144,-2.38813 3.90646,-6.65795 5.54271,-9.69998 2.82555,-5.25319 5.68863,-10.49262 8.539,-15.73434 1.3885,-2.55338 3.33385,-5.13828 4.06569,-8 0.39844,-1.55807 -0.45662,-3.21426 -0.47803,-4.8 -0.0624,-4.61807 0.0955,-9.50305 -0.50543,-14.08 -0.20078,-1.52916 0.36418,-3.99139 -0.69334,-5.23729 -2.43639,-2.87037 -8.24687,-4.78593 -11.60246,-6.38519 -7.17809,-3.42106 -13.98154,-7.69033 -21.12123,-11.21209 -4.62496,-2.28133 -9.23039,-4.72232 -13.75877,-7.179 -1.41072,-0.76534 -3.57215,-2.77332 -5.33605,-2.10049 -1.6101,0.61416 -2.90672,3.24449 -3.89951,4.56543 -2.91944,3.88445 -5.98806,7.66904 -8.92395,11.54863 -4.05446,5.35771 -8.2123,10.64428 -12.28889,15.9874 -1.78889,2.34467 -4.21564,4.68834 -5.46716,7.3726 -1.616413,3.46689 -2.170944,7.80043 -3.012585,11.52 -1.428779,6.31437 -2.94999,12.66816 -4.747412,18.88 -4.824775,16.67426 -8.41332,33.99389 -12.435058,50.88 -1.823726,7.6573 -2.90188,15.98891 -5.649385,23.36 m 120,9.92 c 6.44695,-1.67959 11.25939,-2.0652 17.6,0.73877 2.70025,1.19412 5.14014,3.81209 8,4.38123 -0.59273,-2.48977 -0.24582,-5.04211 -1.59703,-7.36 -2.21158,-3.79381 -6.36117,-5.71262 -10.56297,-6.30863 -3.35994,-0.4766 -6.59842,0.0489 -9.27531,-2.38717 -3.64047,-3.31291 -6.0586,-8.04354 -8.75112,-12.1042 -1.02902,-1.55189 -1.93625,-3.86869 -3.5506,-4.9084 -1.41649,-0.91226 -7.52928,2.41045 -7.92174,4.00742 -0.52076,2.11907 3.02705,5.52961 4.27309,6.98121 4.46505,5.20178 9.61201,10.29301 11.78568,16.95977 z"
       id="path1" />
  </g>
</svg>
